<?xml version="1.0" encoding="iso-8859-1"?>
<!-- Uploaded to: SVG Repo, www.svgrepo.com, Generator: SVG Repo Mixer Tools -->
<svg fill="#000000" version="1.1" id="Layer_1" xmlns="http://www.w3.org/2000/svg" xmlns:xlink="http://www.w3.org/1999/xlink" 
	 viewBox="0 0 496 496" xml:space="preserve">
<g>
	<g>
		<g>
			<rect x="480" y="480" width="16" height="16"/>
			<path d="M384,80V16H256V0h-16v16H112v172.856l-48-27.712V160h-1.976l-1.728-1l-0.584,1H0v112c0,17.648,14.352,32,32,32h80v32
				h70.24l-28.8,144H0v16h240h16h208v-16H342.56l-28.8-144H384V208h64v-16h-13.76l14.48-57.904l-29.656-37.072
				C449.088,102.288,472,128.488,472,160h16c0-26.184-12.704-49.4-32.208-64H496V80H384z M48,272c0,8.824-7.176,16-16,16
				s-16-7.176-16-16v-96h32V272z M107.128,210.152l16,27.704l-51.704,29.856l31.992-55.416L107.128,210.152z M64,184.584
				l2.152-3.728l27.704,16L64,248.568V184.584z M68.272,288l55.432-32H128v32H68.272z M240,480h-70.24l28.8-144H240V480z
				 M326.24,480H256V336h41.44L326.24,480z M367.28,134.096L381.76,192H368v8v8v112H128v-16h16v-59.72l0.992-0.576L144,241.992V240
				h-1.152L128,214.28V32h240v48h-48v16h40.208C340.704,110.6,328,133.816,328,160h16c0-31.512,22.912-57.712,52.936-62.976
				L367.28,134.096z M431.28,137.912L417.76,192h-19.52l-13.52-54.096L400,118.808V152h16v-33.192L431.28,137.912z"/>
			<rect x="160" y="64" width="16" height="16"/>
			<rect x="320" y="272" width="16" height="16"/>
			<path d="M320,176c0-39.704-32.296-72-72-72c-12.944,0-25.072,3.48-35.576,9.48l-21.952-30.184l-12.936,9.408l21.984,30.224
				C185.104,136.104,176,154.984,176,176c0,39.704,32.296,72,72,72c12.944,0,25.072-3.48,35.576-9.48l21.952,30.184l12.936-9.408
				l-21.984-30.224C310.896,215.896,320,197.016,320,176z M248,232c-30.872,0-56-25.128-56-56c0-15.704,6.52-29.896,16.968-40.072
				l65.144,89.576C266.304,229.632,257.432,232,248,232z M221.888,126.496C229.696,122.368,238.568,120,248,120
				c30.872,0,56,25.128,56,56c0,15.704-6.52,29.896-16.968,40.072L221.888,126.496z"/>
		</g>
	</g>
</g>
</svg>