<!DOCTYPE svg PUBLIC "-//W3C//DTD SVG 1.1//EN" "http://www.w3.org/Graphics/SVG/1.1/DTD/svg11.dtd">
<!-- Uploaded to: SVG Repo, www.svgrepo.com, Transformed by: SVG Repo Mixer Tools -->
<svg fill="#ffffff" height="800px" width="800px" version="1.1" id="Layer_1" xmlns="http://www.w3.org/2000/svg" xmlns:xlink="http://www.w3.org/1999/xlink" viewBox="0 0 512 512" xml:space="preserve" stroke="#ffffff">
<g id="SVGRepo_bgCarrier" stroke-width="0"/>
<g id="SVGRepo_tracerCarrier" stroke-linecap="round" stroke-linejoin="round"/>
<g id="SVGRepo_iconCarrier"> <g> <g> <path d="M259.456,15.895c-8.995-2.828-18.385-4.259-27.892-4.259c-28.125,0-54.54,12.684-72.145,34.281 c-5.818-1.14-11.66-1.699-17.455-1.699c-41.484,0-77.3,26.927-89.065,66.188C20.573,125.812,0,158.138,0,194.327 c0,6.435,5.213,11.636,11.636,11.636s11.636-5.201,11.636-11.636c0-28.637,17.187-54.051,43.776-64.733 c3.526-1.42,6.132-4.468,6.993-8.157c7.389-31.767,35.316-53.946,67.921-53.946c6.272,0,12.672,0.908,19.025,2.7 c4.829,1.361,9.972-0.512,12.8-4.643c13.033-19.188,34.641-30.638,57.775-30.638c7.145,0,14.173,1.07,20.911,3.188 c6.109,1.932,12.66-1.478,14.592-7.61C268.998,24.367,265.588,17.827,259.456,15.895z"/> </g> </g> <g> <g> <path d="M121.6,353.745c-54.214,0-98.327-34.967-98.327-77.964c0-11.683,3.316-23.028,9.844-33.722 c16.652-27.287,50.56-44.241,88.483-44.241c6.423,0,11.636-5.201,11.636-11.636s-5.213-11.636-11.636-11.636 c-45.975,0-87.494,21.213-108.346,55.377C4.457,244.329,0,259.747,0,275.782c0,55.82,54.551,101.236,121.6,101.236 c6.423,0,11.636-5.201,11.636-11.636C133.236,358.947,128.023,353.745,121.6,353.745z"/> </g> </g> <g> <g> <path d="M434.409,81.617c-18.199-32.791-54.074-53.69-92.881-53.69c-18.735,0-37.248,4.887-53.527,14.138 c-31.942,18.176-51.782,51.549-51.782,87.098c0,4.515-11.043,12.812-29.091,12.812c-6.423,0-11.636,5.201-11.636,11.636 c0,6.435,5.213,11.636,11.636,11.636c16.721,0,31.209-5.248,40.727-13.417c9.519,8.169,24.006,13.417,40.727,13.417 c6.423,0,11.636-5.201,11.636-11.636c0-6.435-5.213-11.636-11.636-11.636c-18.048,0-29.091-8.297-29.091-12.812 c0-27.613,14.964-52.608,40.017-66.863C312.285,55.04,326.807,51.2,341.527,51.2c31.814,0,61.033,17.804,74.426,45.359 c1.501,3.095,4.305,5.364,7.633,6.191c38.353,9.623,65.14,43.916,65.14,83.433c0,3.479-0.209,6.9-0.605,10.263 c-0.756,6.388,3.805,12.172,10.182,12.928c0.466,0.058,0.931,0.081,1.396,0.081c5.807,0,10.833-4.352,11.543-10.263 c0.5-4.271,0.756-8.599,0.756-13.009C512,137.775,480.361,95.511,434.409,81.617z"/> </g> </g> <g> <g> <path d="M272.291,198.982c-33.362,0-60.509,27.148-60.509,60.509c0,6.435,5.213,11.636,11.636,11.636s11.636-5.201,11.636-11.636 c0-20.538,16.71-37.236,37.236-37.236c6.423,0,11.636-5.201,11.636-11.636C283.927,204.183,278.714,198.982,272.291,198.982z"/> </g> </g> <g> <g> <path d="M353.745,247.855c-24.378,0-44.218,19.84-44.218,44.218c0,42.985-36.806,77.964-82.036,77.964 c-20.573,0-40.239-7.261-55.401-20.457c-16.931-14.743-26.636-35.7-26.636-57.507c0-6.435-5.213-11.636-11.636-11.636 s-11.636,5.201-11.636,11.636c0,28.544,12.614,55.901,34.63,75.055c19.398,16.884,44.497,26.182,70.679,26.182 c58.065,0,105.309-45.417,105.309-101.236c0-11.555,9.402-20.945,20.945-20.945c6.423,0,11.636-5.201,11.636-11.636 S360.169,247.855,353.745,247.855z"/> </g> </g> <g> <g> <path d="M495.709,283.939c0-13.312-2.467-26.473-7.331-39.156c-16.116-42.007-57.123-70.237-102.051-70.237 c-6.423,0-11.636,5.201-11.636,11.636s5.213,11.636,11.636,11.636c35.91,0,67.433,21.702,80.326,55.296 c3.84,10.007,5.783,20.375,5.783,30.813c0,49.885-32.791,86.097-77.964,86.097c-0.547,0-57.367,1.14-85.492,15.197 c-3.945,1.978-6.435,6.004-6.435,10.415c0,19.828,19.037,83.002,23.761,91.345c7.575,13.382,19.759,13.382,44.02,13.382 c5.76,0,56.634-0.582,69.004-20.666c3.537-5.725,3.793-12.521,1.071-17.839l-14.72-35.724c-2.455-5.946-9.263-8.762-15.197-6.33 c-5.946,2.455-8.774,9.251-6.33,15.197l13.882,33.606c-5.737,3.549-23.424,8.483-47.709,8.483c-6.854,0-21.132,0-23.657-1.385 c-3.328-6.726-16.791-51.456-20.108-72.623c22.796-7.889,60.998-9.775,67.91-9.775 C453.132,393.309,495.709,347.311,495.709,283.939z"/> </g> </g> </g>
</svg>